<svg width="20" height="20" viewBox="0 0 20 20" fill="none" xmlns="http://www.w3.org/2000/svg">
<path d="M6.66659 4.16699C6.24992 4.16699 5.83325 4.34199 5.50825 4.66699C5.18325 4.99199 4.99992 5.37533 4.99992 5.83366V8.33366C4.55825 8.33366 4.16659 8.49199 3.82492 8.82533C3.48325 9.15866 3.33325 9.55866 3.33325 10.0003V14.167H4.44992L4.99992 15.8337H5.83325L6.40825 14.167H13.6333L14.1666 15.8337H14.9999L15.5499 14.167H16.6666V10.0003C16.6666 9.55866 16.5083 9.16699 16.1749 8.82533C15.8416 8.48366 15.4416 8.33366 14.9999 8.33366V5.83366C14.9999 5.37533 14.8333 5.00033 14.4916 4.66699C14.1499 4.33366 13.7499 4.16699 13.3333 4.16699M6.66659 5.83366H9.16658V8.33366H6.66659M10.8333 5.83366H13.3333V8.33366H10.8333M4.99992 10.0003H14.9999V12.5003H4.99992V10.0003Z" fill="black"/>
<rect x="0.75" y="0.75" width="18.5" height="18.5" rx="1.25" stroke="black" stroke-width="1.5"/>
</svg>
