<svg width="29" height="29" viewBox="0 0 29 29" fill="none" xmlns="http://www.w3.org/2000/svg">
<path d="M2.71875 23.5625V17.2188C2.72159 16.2582 3.10442 15.3378 3.78362 14.6586C4.46283 13.9794 5.38321 13.5966 6.34375 13.5938H22.6562C23.6168 13.5966 24.5372 13.9794 25.2164 14.6586C25.8956 15.3378 26.2784 16.2582 26.2812 17.2188V23.5625M21.75 13.5938H5.4375V7.70312C5.43929 7.1028 5.67857 6.52757 6.10307 6.10307C6.52757 5.67857 7.1028 5.43929 7.70312 5.4375H21.2969C21.8972 5.43929 22.4724 5.67857 22.8969 6.10307C23.3214 6.52757 23.5607 7.1028 23.5625 7.70312V13.5938H21.75Z" stroke="black" stroke-width="2" stroke-linecap="round" stroke-linejoin="round"/>
<path d="M2.71875 23.5625V23.1094C2.7198 22.7492 2.86335 22.404 3.11806 22.1493C3.37276 21.8946 3.71792 21.751 4.07812 21.75H24.9219C25.2821 21.751 25.6272 21.8946 25.8819 22.1493C26.1366 22.404 26.2802 22.7492 26.2812 23.1094V23.5625M6.34375 13.5938V12.6875C6.3451 12.2072 6.53649 11.747 6.8761 11.4074C7.21572 11.0677 7.67596 10.8763 8.15625 10.875H12.6875C13.1678 10.8763 13.628 11.0677 13.9676 11.4074C14.3073 11.747 14.4987 12.2072 14.5 12.6875M14.5 12.6875V13.5938M14.5 12.6875C14.5013 12.2072 14.6927 11.747 15.0324 11.4074C15.372 11.0677 15.8322 10.8763 16.3125 10.875H20.8438C21.324 10.8763 21.7843 11.0677 22.1239 11.4074C22.4635 11.747 22.6549 12.2072 22.6562 12.6875V13.5938" stroke="black" stroke-width="2" stroke-linecap="round" stroke-linejoin="round"/>
</svg>
